# xmcd
#
# Track frame offsets:
#	155
#	17287
#	36270
#	49675
#	60352
#	72825
#	88050
#	103485
#	114837
#	128830
#	142012
#	152855
#	161825
#	174437
#	278595
#	281390
#	286320
#	291242
#	298417
#
# Disc length: 4101 seconds
#
# Revision: 0
# Processed by: cddbd v1.5.2PL0 Copyright (c) Steve Scherf et al.
# Submitted via: EasyCDDAExtractor 10.0.6.1
#
DISCID=1d100313
DTITLE=Various Artist - Eddie Crook Co. Vol.1993-03
DYEAR=1993
DGENRE=Gospel
TTITLE0=Perrys - King Of It All
TTITLE1=Kindlers - My Mountain Is Only A Hill
TTITLE2=Cedar Ridge - Family Bussiness
TTITLE3=Hastys - It Gets Better Farther On
TTITLE4=Happy Pilgrims - Jesus, He Came A Long Way
TTITLE5=Living Water - Walking In The Light
TTITLE6=Oak Grove - Hang Another Star
TTITLE7=Newland and Shiloh - No Silver Or Gold
TTITLE8=Christian Family - He's My Strength
TTITLE9=God Sent - I'm Under The Lamb
TTITLE10=Love Offering - Gods Not Keeping Records
TTITLE11=Evans and Rhythm - Everybody Awake
TTITLE12=King's Traveler - We Shall Rise
TTITLE13=Spot - 1
TTITLE14=Spot - 2
TTITLE15=Spot - 3
TTITLE16=Spot - 4
TTITLE17=Spot - 5
TTITLE18=Spot - 6
EXTD=
EXTT0=
EXTT1=
EXTT2=
EXTT3=
EXTT4=
EXTT5=
EXTT6=
EXTT7=
EXTT8=
EXTT9=
EXTT10=
EXTT11=
EXTT12=
EXTT13=
EXTT14=
EXTT15=
EXTT16=
EXTT17=
EXTT18=
PLAYORDER=
